<?xml version="1.0" encoding="utf-8"?>
<!-- Generator: Adobe Illustrator 16.0.0, SVG Export Plug-In . SVG Version: 6.00 Build 0)  -->
<!DOCTYPE svg PUBLIC "-//W3C//DTD SVG 1.1//EN" "http://www.w3.org/Graphics/SVG/1.1/DTD/svg11.dtd">
<svg version="1.1" id="Layer_1" xmlns="http://www.w3.org/2000/svg" xmlns:xlink="http://www.w3.org/1999/xlink" x="0px" y="0px"
	 width="125px" height="125px" viewBox="0 0 125 125" enable-background="new 0 0 125 125" xml:space="preserve">
<g>
	<g>
		<g>
			<g>
				<path fill="#6CC7BD" d="M61.88,121.919c-33.084,0-60-26.917-60-60.002c0-33.082,26.916-59.998,60-59.998
					c33.083,0,60,26.916,60,59.998C121.88,95.002,94.963,121.919,61.88,121.919z M61.88,4.234
					c-31.807,0-57.685,25.877-57.685,57.683c0,31.807,25.877,57.684,57.685,57.684c31.806,0,57.682-25.877,57.682-57.684
					C119.562,30.111,93.686,4.234,61.88,4.234z"/>
			</g>
		</g>
		<g>
			<g>
				<path fill="#6CC7BD" d="M61.88,112.427c-27.849,0-50.507-22.657-50.507-50.51c0-27.848,22.658-50.506,50.507-50.506
					c27.85,0,50.507,22.658,50.507,50.506C112.387,89.77,89.729,112.427,61.88,112.427z M61.88,12.34
					c-27.338,0-49.579,22.24-49.579,49.577c0,27.341,22.241,49.581,49.579,49.581c27.337,0,49.578-22.24,49.578-49.581
					C111.458,34.58,89.217,12.34,61.88,12.34z"/>
			</g>
		</g>
		<g>
			<g>
				<g>
					
						<rect x="45.554" y="84.328" transform="matrix(-0.7071 0.7071 -0.7071 -0.7071 165.8245 100.3026)" fill="#6CC7BD" width="33.173" height="0.33"/>
				</g>
			</g>
			<g>
				<g>
					<path fill="#6CC7BD" d="M50.294,96.104"/>
				</g>
			</g>
			<g>
				<g>
					<polygon fill="#6CC7BD" points="50.294,96.104 50.459,96.267 50.459,95.939 					"/>
				</g>
			</g>
			<g>
				<g>
					<polygon fill="#6CC7BD" points="50.459,95.939 50.459,96.267 50.53,96.34 50.618,96.249 50.618,95.783 					"/>
				</g>
			</g>
			<g>
				<g>
					<polygon fill="#6CC7BD" points="50.618,95.783 50.618,96.252 50.78,96.087 50.78,95.618 					"/>
				</g>
			</g>
			<g>
				<g>
					<polygon fill="#6CC7BD" points="50.78,95.618 50.78,96.087 50.946,95.926 50.946,95.457 					"/>
				</g>
			</g>
			<g>
				<g>
					<polygon fill="#6CC7BD" points="50.946,95.457 50.946,95.926 51.106,95.764 51.106,95.292 					"/>
				</g>
			</g>
			<g>
				<g>
					<polygon fill="#6CC7BD" points="51.106,95.292 51.106,95.764 51.271,95.599 51.271,95.13 					"/>
				</g>
			</g>
			<g>
				<g>
					<polygon fill="#6CC7BD" points="51.271,95.13 51.271,95.599 51.434,95.44 51.434,94.972 					"/>
				</g>
			</g>
			<g>
				<g>
					<polygon fill="#6CC7BD" points="51.434,94.972 51.434,95.44 51.591,95.278 51.591,94.81 					"/>
				</g>
			</g>
			<g>
				<g>
					<polygon fill="#6CC7BD" points="51.591,94.81 51.591,95.278 51.757,95.113 51.757,94.647 					"/>
				</g>
			</g>
			<g>
				<g>
					<polygon fill="#6CC7BD" points="51.757,94.647 51.757,95.113 51.919,94.951 51.919,94.482 					"/>
				</g>
			</g>
			<g>
				<g>
					<polygon fill="#6CC7BD" points="51.919,94.482 51.919,94.951 52.081,94.787 52.081,94.317 					"/>
				</g>
			</g>
			<g>
				<g>
					<polygon fill="#6CC7BD" points="52.081,94.317 52.081,94.79 52.243,94.625 52.243,94.158 					"/>
				</g>
			</g>
			<g>
				<g>
					<polygon fill="#6CC7BD" points="52.243,94.158 52.243,94.627 52.405,94.465 52.405,93.996 					"/>
				</g>
			</g>
			<g>
				<g>
					<polygon fill="#6CC7BD" points="52.405,93.996 52.405,94.465 52.568,94.3 52.568,93.831 					"/>
				</g>
			</g>
			<g>
				<g>
					<polygon fill="#6CC7BD" points="52.568,93.831 52.568,94.3 52.73,94.142 52.73,93.673 					"/>
				</g>
			</g>
			<g>
				<g>
					<polygon fill="#6CC7BD" points="52.73,93.673 52.73,94.142 52.894,93.977 52.894,93.505 					"/>
				</g>
			</g>
			<g>
				<g>
					<polygon fill="#6CC7BD" points="52.894,93.505 52.894,93.977 53.054,93.814 53.054,93.346 					"/>
				</g>
			</g>
			<g>
				<g>
					<polygon fill="#6CC7BD" points="53.054,93.346 53.054,93.814 53.216,93.652 53.216,93.184 					"/>
				</g>
			</g>
			<g>
				<g>
					<polygon fill="#6CC7BD" points="53.216,93.184 53.216,93.652 53.378,93.49 53.378,93.021 					"/>
				</g>
			</g>
			<g>
				<g>
					<polygon fill="#6CC7BD" points="53.378,93.021 53.378,93.49 53.54,93.329 53.54,92.86 					"/>
				</g>
			</g>
			<g>
				<g>
					<polygon fill="#6CC7BD" points="53.54,92.86 53.54,93.329 53.706,93.164 53.706,92.695 					"/>
				</g>
			</g>
			<g>
				<g>
					<polygon fill="#6CC7BD" points="53.706,92.695 53.706,93.164 53.864,93.002 53.864,92.533 					"/>
				</g>
			</g>
			<g>
				<g>
					<polygon fill="#6CC7BD" points="53.864,92.533 53.864,93.002 54.031,92.841 54.031,92.372 					"/>
				</g>
			</g>
			<g>
				<g>
					<polygon fill="#6CC7BD" points="54.031,92.372 54.031,92.841 54.193,92.679 54.193,92.21 					"/>
				</g>
			</g>
			<g>
				<g>
					<polygon fill="#6CC7BD" points="54.193,92.21 54.193,92.679 54.351,92.521 54.351,92.05 					"/>
				</g>
			</g>
			<g>
				<g>
					<polygon fill="#6CC7BD" points="54.351,92.05 54.351,92.521 54.515,92.354 54.515,91.885 					"/>
				</g>
			</g>
			<g>
				<g>
					<polygon fill="#6CC7BD" points="54.515,91.885 54.515,92.354 54.679,92.189 54.679,91.721 					"/>
				</g>
			</g>
			<g>
				<g>
					<polygon fill="#6CC7BD" points="54.679,91.721 54.679,92.189 54.84,92.03 54.84,91.562 					"/>
				</g>
			</g>
			<g>
				<g>
					<polygon fill="#6CC7BD" points="54.84,91.562 54.84,92.03 55.003,91.868 55.003,91.399 					"/>
				</g>
			</g>
			<g>
				<g>
					<polygon fill="#6CC7BD" points="55.003,91.399 55.003,91.865 55.164,91.706 55.164,91.237 					"/>
				</g>
			</g>
			<g>
				<g>
					<polygon fill="#6CC7BD" points="55.164,91.237 55.164,91.706 55.328,91.542 55.328,91.07 					"/>
				</g>
			</g>
			<g>
				<g>
					<polygon fill="#6CC7BD" points="55.328,91.07 55.328,91.542 55.487,91.38 55.487,90.911 					"/>
				</g>
			</g>
			<g>
				<g>
					<polygon fill="#6CC7BD" points="55.487,90.911 55.487,91.38 55.649,91.221 55.649,90.752 					"/>
				</g>
			</g>
			<g>
				<g>
					<polygon fill="#6CC7BD" points="55.649,90.752 55.649,91.221 55.814,91.057 55.814,90.584 					"/>
				</g>
			</g>
			<g>
				<g>
					<polygon fill="#6CC7BD" points="55.814,90.584 55.814,91.057 55.976,90.895 55.976,90.426 					"/>
				</g>
			</g>
			<g>
				<g>
					<polygon fill="#6CC7BD" points="55.976,90.426 55.976,90.895 56.138,90.732 56.138,90.264 					"/>
				</g>
			</g>
			<g>
				<g>
					<polygon fill="#6CC7BD" points="56.138,90.264 56.138,90.732 56.3,90.57 56.3,90.104 					"/>
				</g>
			</g>
			<g>
				<g>
					<polygon fill="#6CC7BD" points="56.3,90.104 56.3,90.57 56.462,90.407 56.462,89.938 					"/>
				</g>
			</g>
			<g>
				<g>
					<polygon fill="#6CC7BD" points="56.462,89.938 56.462,90.407 56.625,90.246 56.625,89.777 					"/>
				</g>
			</g>
			<g>
				<g>
					<polygon fill="#6CC7BD" points="56.625,89.777 56.625,90.246 56.787,90.081 56.787,89.615 					"/>
				</g>
			</g>
			<g>
				<g>
					<polygon fill="#6CC7BD" points="56.787,89.615 56.787,90.081 56.949,89.922 56.949,89.453 					"/>
				</g>
			</g>
			<g>
				<g>
					<polygon fill="#6CC7BD" points="56.945,89.453 56.945,89.922 57.112,89.754 57.112,89.285 					"/>
				</g>
			</g>
			<g>
				<g>
					<polygon fill="#6CC7BD" points="57.112,89.288 57.112,89.757 57.273,89.596 57.273,89.13 					"/>
				</g>
			</g>
			<g>
				<g>
					<polygon fill="#6CC7BD" points="57.273,89.13 57.273,89.596 57.435,89.431 57.435,88.965 					"/>
				</g>
			</g>
			<g>
				<g>
					<polygon fill="#6CC7BD" points="57.435,88.965 57.435,89.434 57.597,89.271 57.597,88.803 					"/>
				</g>
			</g>
			<g>
				<g>
					<polygon fill="#6CC7BD" points="57.597,88.803 57.597,89.271 57.759,89.11 57.759,88.642 					"/>
				</g>
			</g>
			<g>
				<g>
					<polygon fill="#6CC7BD" points="57.759,88.642 57.759,89.11 57.924,88.948 57.924,88.479 					"/>
				</g>
			</g>
			<g>
				<g>
					<polygon fill="#6CC7BD" points="57.924,88.479 57.924,88.948 58.084,88.786 58.084,88.314 					"/>
				</g>
			</g>
			<g>
				<g>
					<polygon fill="#6CC7BD" points="58.084,88.314 58.084,88.786 58.246,88.621 58.246,88.152 					"/>
				</g>
			</g>
			<g>
				<g>
					<polygon fill="#6CC7BD" points="58.246,88.152 58.246,88.621 58.409,88.46 58.409,87.991 					"/>
				</g>
			</g>
			<g>
				<g>
					<polygon fill="#6CC7BD" points="58.409,87.991 58.409,88.46 58.571,88.298 58.571,87.829 					"/>
				</g>
			</g>
			<g>
				<g>
					<polygon fill="#6CC7BD" points="58.571,87.829 58.571,88.298 58.734,88.133 58.734,87.666 					"/>
				</g>
			</g>
			<g>
				<g>
					<polygon fill="#6CC7BD" points="58.734,87.666 58.734,88.133 58.894,87.973 58.894,87.504 					"/>
				</g>
			</g>
			<g>
				<g>
					<polygon fill="#6CC7BD" points="58.894,87.504 58.894,87.97 59.059,87.809 59.059,87.343 					"/>
				</g>
			</g>
			<g>
				<g>
					<polygon fill="#6CC7BD" points="59.059,87.343 59.059,87.809 59.222,87.646 59.222,87.181 					"/>
				</g>
			</g>
			<g>
				<g>
					<polygon fill="#6CC7BD" points="59.222,87.181 59.222,87.646 59.385,87.484 59.385,87.016 					"/>
				</g>
			</g>
			<g>
				<g>
					<polygon fill="#6CC7BD" points="59.385,87.016 59.385,87.484 59.542,87.326 59.542,86.857 					"/>
				</g>
			</g>
			<g>
				<g>
					<polygon fill="#6CC7BD" points="59.544,86.857 59.544,87.322 59.705,87.164 59.705,86.695 					"/>
				</g>
			</g>
			<g>
				<g>
					<polygon fill="#6CC7BD" points="59.706,86.695 59.706,87.164 59.871,86.996 59.871,86.53 					"/>
				</g>
			</g>
			<g>
				<g>
					<polygon fill="#6CC7BD" points="59.871,86.53 59.871,86.999 60.033,86.837 60.033,86.371 					"/>
				</g>
			</g>
			<g>
				<g>
					<polygon fill="#6CC7BD" points="60.033,86.368 60.033,86.837 60.194,86.675 60.194,86.206 					"/>
				</g>
			</g>
			<g>
				<g>
					<polygon fill="#6CC7BD" points="60.195,86.206 60.195,86.675 60.355,86.514 60.355,86.048 					"/>
				</g>
			</g>
			<g>
				<g>
					<polygon fill="#6CC7BD" points="60.357,86.048 60.357,86.514 60.519,86.352 60.519,85.885 					"/>
				</g>
			</g>
			<g>
				<g>
					<polygon fill="#6CC7BD" points="60.519,85.885 60.519,86.352 60.679,86.191 60.679,85.723 					"/>
				</g>
			</g>
			<g>
				<g>
					<polygon fill="#6CC7BD" points="60.679,85.723 60.679,86.191 60.841,86.026 60.841,85.561 					"/>
				</g>
			</g>
			<g>
				<g>
					<polygon fill="#6CC7BD" points="60.841,85.561 60.841,86.026 61.006,85.862 61.006,85.396 					"/>
				</g>
			</g>
			<g>
				<g>
					<polygon fill="#6CC7BD" points="61.006,85.396 61.006,85.862 61.168,85.703 61.168,85.234 					"/>
				</g>
			</g>
			<g>
				<g>
					<polygon fill="#6CC7BD" points="61.168,85.234 61.168,85.703 61.332,85.535 61.332,85.069 					"/>
				</g>
			</g>
			<g>
				<g>
					<polygon fill="#6CC7BD" points="61.332,85.069 61.332,85.535 61.492,85.38 61.492,84.911 					"/>
				</g>
			</g>
			<g>
				<g>
					<polygon fill="#6CC7BD" points="61.492,84.911 61.492,85.38 61.654,85.215 61.654,84.752 					"/>
				</g>
			</g>
			<g>
				<g>
					<polygon fill="#6CC7BD" points="61.654,84.749 61.654,85.218 61.815,85.053 61.815,84.584 					"/>
				</g>
			</g>
			<g>
				<g>
					<polygon fill="#6CC7BD" points="61.815,84.584 61.815,85.053 61.978,84.891 61.978,84.422 					"/>
				</g>
			</g>
			<g>
				<g>
					<polygon fill="#6CC7BD" points="61.978,84.422 61.978,84.891 62.145,84.729 62.145,84.261 					"/>
				</g>
			</g>
			<g>
				<g>
					<polygon fill="#6CC7BD" points="62.145,84.261 62.145,84.729 62.304,84.564 62.304,84.096 					"/>
				</g>
			</g>
			<g>
				<g>
					<polygon fill="#6CC7BD" points="62.304,84.096 62.304,84.564 62.466,84.402 62.466,83.934 					"/>
				</g>
			</g>
			<g>
				<g>
					<polygon fill="#6CC7BD" points="62.466,83.934 62.466,84.402 62.631,84.24 62.631,83.771 					"/>
				</g>
			</g>
			<g>
				<g>
					<polygon fill="#6CC7BD" points="62.631,83.771 62.631,84.24 62.789,84.079 62.789,83.611 					"/>
				</g>
			</g>
			<g>
				<g>
					<polygon fill="#6CC7BD" points="62.793,83.611 62.793,84.079 62.954,83.914 62.954,83.445 					"/>
				</g>
			</g>
			<g>
				<g>
					<polygon fill="#6CC7BD" points="62.954,83.445 62.954,83.914 63.115,83.751 63.115,83.282 					"/>
				</g>
			</g>
			<g>
				<g>
					<polygon fill="#6CC7BD" points="63.117,83.282 63.117,83.751 63.278,83.589 63.278,83.123 					"/>
				</g>
			</g>
			<g>
				<g>
					<polygon fill="#6CC7BD" points="63.278,83.123 63.278,83.589 63.442,83.427 63.442,82.961 					"/>
				</g>
			</g>
			<g>
				<g>
					<polygon fill="#6CC7BD" points="63.442,82.961 63.442,83.427 63.601,83.269 63.601,82.803 					"/>
				</g>
			</g>
			<g>
				<g>
					<polygon fill="#6CC7BD" points="63.601,82.803 63.601,83.266 63.764,83.104 63.764,82.641 					"/>
				</g>
			</g>
			<g>
				<g>
					<polygon fill="#6CC7BD" points="63.764,82.641 63.764,83.104 63.929,82.944 63.929,82.476 					"/>
				</g>
			</g>
			<g>
				<g>
					<polygon fill="#6CC7BD" points="63.929,82.476 63.929,82.944 64.09,82.78 64.09,82.314 					"/>
				</g>
			</g>
			<g>
				<g>
					<polygon fill="#6CC7BD" points="64.09,82.314 64.09,82.78 64.252,82.621 64.252,82.155 					"/>
				</g>
			</g>
			<g>
				<g>
					<polygon fill="#6CC7BD" points="64.248,82.155 64.248,82.621 64.414,82.453 64.414,81.99 					"/>
				</g>
			</g>
			<g>
				<g>
					<polygon fill="#6CC7BD" points="64.414,81.99 64.414,82.453 64.576,82.294 64.576,81.825 					"/>
				</g>
			</g>
			<g>
				<g>
					<polygon fill="#6CC7BD" points="64.576,81.825 64.576,82.294 64.738,82.133 64.738,81.666 					"/>
				</g>
			</g>
			<g>
				<g>
					<polygon fill="#6CC7BD" points="64.738,81.666 64.738,82.133 64.901,81.965 64.901,81.499 					"/>
				</g>
			</g>
			<g>
				<g>
					<polygon fill="#6CC7BD" points="64.901,81.499 64.901,81.965 65.062,81.806 65.062,81.339 					"/>
				</g>
			</g>
			<g>
				<g>
					<polygon fill="#6CC7BD" points="65.062,81.339 65.062,81.806 65.227,81.643 65.227,81.174 					"/>
				</g>
			</g>
			<g>
				<g>
					<polygon fill="#6CC7BD" points="65.227,81.174 65.227,81.643 65.389,81.481 65.389,81.016 					"/>
				</g>
			</g>
			<g>
				<g>
					<polygon fill="#6CC7BD" points="65.389,81.016 65.389,81.481 65.549,81.322 65.549,80.854 					"/>
				</g>
			</g>
			<g>
				<g>
					<polygon fill="#6CC7BD" points="65.549,80.854 65.549,81.319 65.71,81.157 65.71,80.688 					"/>
				</g>
			</g>
			<g>
				<g>
					<polygon fill="#6CC7BD" points="65.71,80.688 65.71,81.157 65.875,80.996 65.875,80.527 					"/>
				</g>
			</g>
			<g>
				<g>
					<polygon fill="#6CC7BD" points="65.875,80.527 65.875,80.996 66.038,80.834 66.038,80.365 					"/>
				</g>
			</g>
			<g>
				<g>
					<polygon fill="#6CC7BD" points="66.039,80.365 66.039,80.831 66.2,80.672 66.2,80.203 					"/>
				</g>
			</g>
			<g>
				<g>
					<polygon fill="#6CC7BD" points="66.2,80.203 66.2,80.669 66.36,80.507 66.36,80.041 					"/>
				</g>
			</g>
			<g>
				<g>
					<polygon fill="#6CC7BD" points="66.36,80.041 66.36,80.507 66.522,80.346 66.522,79.877 					"/>
				</g>
			</g>
			<g>
				<g>
					<polygon fill="#6CC7BD" points="66.522,79.877 66.522,80.346 66.686,80.184 66.686,79.718 					"/>
				</g>
			</g>
			<g>
				<g>
					<polygon fill="#6CC7BD" points="66.686,79.718 66.686,80.184 66.85,80.021 66.85,79.553 					"/>
				</g>
			</g>
			<g>
				<g>
					<polygon fill="#6CC7BD" points="66.85,79.553 66.85,80.021 67.011,79.856 67.011,79.393 					"/>
				</g>
			</g>
			<g>
				<g>
					<polygon fill="#6CC7BD" points="67.011,79.393 67.011,79.856 67.173,79.694 67.173,79.23 					"/>
				</g>
			</g>
			<g>
				<g>
					<polygon fill="#6CC7BD" points="67.173,79.23 67.173,79.694 67.336,79.532 67.336,79.063 					"/>
				</g>
			</g>
			<g>
				<g>
					<polygon fill="#6CC7BD" points="67.336,79.063 67.336,79.532 67.496,79.373 67.496,78.904 					"/>
				</g>
			</g>
			<g>
				<g>
					<polygon fill="#6CC7BD" points="67.496,78.904 67.496,79.373 67.661,79.208 67.661,78.742 					"/>
				</g>
			</g>
			<g>
				<g>
					<polygon fill="#6CC7BD" points="67.661,78.742 67.661,79.208 67.82,79.046 67.82,78.584 					"/>
				</g>
			</g>
			<g>
				<g>
					<polygon fill="#6CC7BD" points="67.82,78.584 67.82,79.05 67.986,78.885 67.986,78.416 					"/>
				</g>
			</g>
			<g>
				<g>
					<polygon fill="#6CC7BD" points="67.986,78.416 67.986,78.885 68.147,78.726 68.147,78.257 					"/>
				</g>
			</g>
			<g>
				<g>
					<polygon fill="#6CC7BD" points="68.147,78.257 68.147,78.723 68.31,78.561 68.31,78.098 					"/>
				</g>
			</g>
			<g>
				<g>
					<polygon fill="#6CC7BD" points="68.31,78.098 68.31,78.561 68.471,78.396 68.471,77.931 					"/>
				</g>
			</g>
			<g>
				<g>
					<polygon fill="#6CC7BD" points="68.471,77.931 68.471,78.396 68.636,78.234 68.636,77.769 					"/>
				</g>
			</g>
			<g>
				<g>
					<polygon fill="#6CC7BD" points="68.636,77.769 68.636,78.234 68.798,78.075 68.798,77.606 					"/>
				</g>
			</g>
			<g>
				<g>
					<polygon fill="#6CC7BD" points="68.798,77.606 68.798,78.075 68.958,77.913 68.958,77.446 					"/>
				</g>
			</g>
			<g>
				<g>
					<polygon fill="#6CC7BD" points="68.958,77.446 68.958,77.913 69.12,77.749 69.12,77.282 					"/>
				</g>
			</g>
			<g>
				<g>
					<polygon fill="#6CC7BD" points="69.12,77.282 69.12,77.749 69.283,77.584 69.283,77.12 					"/>
				</g>
			</g>
			<g>
				<g>
					<polygon fill="#6CC7BD" points="69.283,77.12 69.283,77.584 69.443,77.424 69.443,76.958 					"/>
				</g>
			</g>
			<g>
				<g>
					<polygon fill="#6CC7BD" points="69.443,76.958 69.443,77.424 69.605,77.262 69.605,76.796 					"/>
				</g>
			</g>
			<g>
				<g>
					<polygon fill="#6CC7BD" points="69.605,76.796 69.605,77.262 69.771,77.098 69.771,76.631 					"/>
				</g>
			</g>
			<g>
				<g>
					<polygon fill="#6CC7BD" points="69.771,76.631 69.771,77.098 69.933,76.936 69.933,76.47 					"/>
				</g>
			</g>
			<g>
				<g>
					<polygon fill="#6CC7BD" points="69.933,76.47 69.933,76.936 70.092,76.776 70.092,76.308 					"/>
				</g>
			</g>
			<g>
				<g>
					<polygon fill="#6CC7BD" points="70.092,76.308 70.092,76.776 70.257,76.614 70.257,76.146 					"/>
				</g>
			</g>
			<g>
				<g>
					<polygon fill="#6CC7BD" points="70.257,76.146 70.257,76.614 70.419,76.45 70.419,75.984 					"/>
				</g>
			</g>
			<g>
				<g>
					<polygon fill="#6CC7BD" points="70.419,75.984 70.419,76.45 70.579,76.288 70.579,75.822 					"/>
				</g>
			</g>
			<g>
				<g>
					<polygon fill="#6CC7BD" points="70.579,75.822 70.579,76.288 70.741,76.126 70.741,75.663 					"/>
				</g>
			</g>
			<g>
				<g>
					<polygon fill="#6CC7BD" points="70.741,75.66 70.741,76.126 70.904,75.964 70.904,75.498 					"/>
				</g>
			</g>
			<g>
				<g>
					<polygon fill="#6CC7BD" points="70.904,75.498 70.904,75.964 71.067,75.806 71.067,75.337 					"/>
				</g>
			</g>
			<g>
				<g>
					<polygon fill="#6CC7BD" points="71.067,75.337 71.067,75.806 71.227,75.638 71.227,75.174 					"/>
				</g>
			</g>
			<g>
				<g>
					<polygon fill="#6CC7BD" points="71.227,75.174 71.227,75.638 71.393,75.476 71.393,75.007 					"/>
				</g>
			</g>
			<g>
				<g>
					<polygon fill="#6CC7BD" points="71.393,75.007 71.393,75.476 71.553,75.313 71.553,74.847 					"/>
				</g>
			</g>
			<g>
				<g>
					<polygon fill="#6CC7BD" points="71.553,74.847 71.553,75.313 71.715,75.151 71.715,74.688 					"/>
				</g>
			</g>
			<g>
				<g>
					<polygon fill="#6CC7BD" points="71.715,74.688 71.715,75.154 71.88,74.986 71.88,74.523 					"/>
				</g>
			</g>
			<g>
				<g>
					<polygon fill="#6CC7BD" points="71.88,74.523 71.88,74.986 72.039,74.827 72.039,74.364 					"/>
				</g>
			</g>
			<g>
				<g>
					<polygon fill="#6CC7BD" points="72.039,74.364 72.039,74.827 72.2,74.669 72.2,74.203 					"/>
				</g>
			</g>
			<g>
				<g>
					<polygon fill="#6CC7BD" points="72.2,74.203 72.2,74.669 72.368,74.504 72.368,74.038 					"/>
				</g>
			</g>
			<g>
				<g>
					<polygon fill="#6CC7BD" points="72.368,74.038 72.368,74.504 72.528,74.342 72.528,73.879 					"/>
				</g>
			</g>
			<g>
				<g>
					<polygon fill="#6CC7BD" points="72.528,73.879 72.528,74.342 72.69,74.177 72.69,73.714 					"/>
				</g>
			</g>
			<g>
				<g>
					<polygon fill="#6CC7BD" points="72.69,73.714 72.69,74.177 72.851,74.016 72.851,73.552 					"/>
				</g>
			</g>
			<g>
				<g>
					<polygon fill="#6CC7BD" points="72.851,73.552 72.851,74.019 73.014,73.856 73.014,73.391 					"/>
				</g>
			</g>
			<g>
				<g>
					<polygon fill="#6CC7BD" points="73.014,73.391 73.014,73.856 73.177,73.691 73.177,73.228 					"/>
				</g>
			</g>
			<g>
				<g>
					<polygon fill="#6CC7BD" points="73.177,73.228 73.177,73.691 73.339,73.529 73.339,73.063 					"/>
				</g>
			</g>
			<g>
				<g>
					<polygon fill="#6CC7BD" points="73.339,73.063 73.339,73.526 73.502,73.365 73.502,72.898 					"/>
				</g>
			</g>
			<g>
				<g>
					<polygon fill="#6CC7BD" points="73.502,72.898 73.502,73.365 73.664,73.205 73.664,72.739 					"/>
				</g>
			</g>
			<g>
				<g>
					<polygon fill="#6CC7BD" points="73.663,72.739 73.663,73.205 73.824,73.043 73.824,72.716 73.755,72.648 					"/>
				</g>
			</g>
			<g>
				<g>
					<polygon fill="#6CC7BD" points="73.824,73.043 73.986,72.881 73.824,72.716 					"/>
				</g>
			</g>
			<g>
				<defs>
					
						<rect id="SVGID_1_" x="61.975" y="67.907" transform="matrix(-0.7122 -0.7019 0.7019 -0.7122 47.0917 188.2903)" width="0.331" height="33.172"/>
				</defs>
				<use xlink:href="#SVGID_1_"  overflow="visible" fill="#6CC7BD"/>
				<clipPath id="SVGID_2_">
					<use xlink:href="#SVGID_1_"  overflow="visible"/>
				</clipPath>
				<g clip-path="url(#SVGID_2_)">
					<g>
						<path fill="#6CC7BD" d="M73.986,96.34V72.646V96.34z"/>
					</g>
				</g>
			</g>
			<g>
				<g>
					<g>
						<path fill="#6CC7BD" d="M81.669,45.277h1.525l3.478-16.541h-1.443l-0.676,2.886c-2.884-1.696-7.124-4.242-13.573-4.242
							c-9.669,0-16.542,6.87-16.542,14.757c0,6.532,4.413,11.37,8.315,15.186c7.37,7.211,10.529,10.3,10.967,15.817l6.384-6.381
							c-1.62-4.771-5.083-8.172-7.173-10.2c-8.481-8.313-12.045-11.791-12.045-17.473c0-3.307,1.868-10.35,11.025-10.35
							c7.127,0,10.861,4.753,10.861,9.588c0,1.185-0.255,2.373-0.421,3.561L81.669,45.277z"/>
					</g>
				</g>
				<g>
					<g>
						<path fill="#6CC7BD" d="M61.031,74.37c0,0,0.441-2.702-2.11-4.895c-2.557-2.191-6.237-2.111-8.343-1.331
							c-1.884,0.694-3.759,1.733-5.945,4.894c0,0-2.887,4.074-3.419,9.991c-0.538,5.916,1.787,10.013,4.796,11.578
							c3.01,1.56,5.549,0.69,5.549,0.69l-1.03,1.039c0,0-3.315,0.51-6.05-0.585c-2.733-1.094-5.125-2.767-6.708-6.94
							c-1.581-4.182,0.027-9.936,0.311-10.5c0.286-0.568,1.652-5.648,6.55-9.016c4.902-3.366,9.855-2.682,12.293-1.767
							c2.44,0.915,4.634,3.057,4.787,6.372c0.155,3.315-2.417,4.43-3.919,3.308c-1.503-1.122-1.131-3.33,0.481-3.904
							C59.888,72.734,60.896,74.001,61.031,74.37"/>
					</g>
				</g>
			</g>
		</g>
	</g>
</g>
</svg>
